<?xml version="1.0" encoding="UTF-8" standalone="no"?>
<svg
   xmlns:dc="http://purl.org/dc/elements/1.1/"
   xmlns:cc="http://creativecommons.org/ns#"
   xmlns:rdf="http://www.w3.org/1999/02/22-rdf-syntax-ns#"
   xmlns:svg="http://www.w3.org/2000/svg"
   xmlns="http://www.w3.org/2000/svg"
   xmlns:xlink="http://www.w3.org/1999/xlink"
   width="1100"
   height="256"
   viewBox="0 0 291.04166 67.733333"
   version="1.1"
   id="svg8">
  <defs
     id="defs2">
    <linearGradient
       id="linearGradient904">
      <stop
         style="stop-color:#7f4bca;stop-opacity:1;"
         offset="0"
         id="stop900" />
      <stop
         style="stop-color:#852788;stop-opacity:1"
         offset="1"
         id="stop902" />
    </linearGradient>
    <linearGradient
       xlink:href="#linearGradient904"
       id="linearGradient906"
       x1="30.978144"
       y1="29.909761"
       x2="48.025448"
       y2="86.426224"
       gradientUnits="userSpaceOnUse" />
  </defs>
  <metadata
     id="metadata5">
    <rdf:RDF>
      <cc:Work
         rdf:about="">
        <dc:format>image/svg+xml</dc:format>
        <dc:type
           rdf:resource="http://purl.org/dc/dcmitype/StillImage" />
        <dc:title></dc:title>
      </cc:Work>
    </rdf:RDF>
  </metadata>
  <g
     id="layer1">
    <circle
       style="fill:url(#linearGradient906);fill-opacity:1;stroke:none;stroke-width:8.7394;stroke-miterlimit:4;stroke-dasharray:none;stroke-opacity:1"
       id="path833"
       cx="33.866665"
       cy="33.866665"
       r="29.744209" />
    <path
       id="circle835"
       style="fill:#e7bffb;fill-opacity:1;stroke:none;stroke-width:6.71192;stroke-miterlimit:4;stroke-dasharray:none;stroke-opacity:1"
       d="m 34.046501,11.023358 v 22.061704 c 0,0.463542 -0.3731,0.837158 -0.836642,0.837158 H 11.0231 A 22.843748,22.843748 0 0 0 33.866666,56.709975 22.843748,22.843748 0 0 0 56.710233,33.866408 22.843748,22.843748 0 0 0 34.046501,11.023358 Z" />
    <g
       aria-label="Projectify"
       id="text898"
       style="font-weight:bold;font-size:50.8px;line-height:1.25;font-family:'Fira Sans';-inkscape-font-specification:'Fira Sans Bold';letter-spacing:-0.529167px;word-spacing:0px;fill:#2a1238;fill-opacity:1;stroke-width:0.264583">
      <path
         d="m 85.028178,15.825874 h -10.8712 v 35.153599 h 7.4676 v -11.9888 h 4.0132 c 8.0264,0 13.817599,-3.7084 13.817599,-11.8364 0,-7.670799 -5.486399,-11.328399 -14.427199,-11.328399 z m 0,17.678399 h -3.4036 V 21.210674 h 3.302 c 4.3688,0 6.8072,1.8288 6.8072,5.943599 0,4.7752 -2.5908,6.35 -6.7056,6.35 z"
         style="font-style:normal;font-variant:normal;font-weight:600;font-stretch:normal;font-size:50.8px;font-family:'Fira Sans';-inkscape-font-specification:'Fira Sans Semi-Bold';fill:#2a1238;fill-opacity:1;stroke-width:0.264583"
         id="path1549" />
      <path
         d="m 117.62058,23.293474 c -3.1496,0 -5.7404,2.235199 -7.0104,5.994399 l -0.6604,-5.232399 h -6.2484 v 26.923999 h 7.2136 v -13.8684 c 0.9652,-4.3688 2.4892,-6.8072 5.7912,-6.8072 0.9144,0 1.5748,0.1524 2.3876,0.3556 l 1.2192,-6.959599 c -0.9144,-0.254 -1.7272,-0.4064 -2.6924,-0.4064 z"
         style="font-style:normal;font-variant:normal;font-weight:600;font-stretch:normal;font-size:50.8px;font-family:'Fira Sans';-inkscape-font-specification:'Fira Sans Semi-Bold';fill:#2a1238;fill-opacity:1;stroke-width:0.264583"
         id="path1551" />
      <path
         d="m 134.16016,23.242674 c -8.128,0 -12.954,5.689599 -12.954,14.274799 0,8.9408 4.8768,14.2748 12.9032,14.2748 8.0772,0 12.9032,-5.7404 12.9032,-14.2748 0,-8.9408 -4.826,-14.274799 -12.8524,-14.274799 z m 0,5.384799 c 3.5052,0 5.334,2.6924 5.334,8.89 0,6.1468 -1.8288,8.89 -5.3848,8.89 -3.556,0 -5.3848,-2.6924 -5.3848,-8.89 0,-6.1468 1.8288,-8.89 5.4356,-8.89 z"
         style="font-style:normal;font-variant:normal;font-weight:600;font-stretch:normal;font-size:50.8px;font-family:'Fira Sans';-inkscape-font-specification:'Fira Sans Semi-Bold';fill:#2a1238;fill-opacity:1;stroke-width:0.264583"
         id="path1553" />
      <path
         d="m 155.52578,10.187074 c -2.5908,0 -4.3688,1.8288 -4.3688,4.2164 0,2.3876 1.778,4.2164 4.3688,4.2164 2.5908,0 4.4196,-1.8288 4.4196,-4.2164 0,-2.3876 -1.8288,-4.2164 -4.4196,-4.2164 z m 3.6068,13.8684 h -7.2136 v 24.688799 c 0,5.08 -1.9812,6.5024 -5.4356,8.128 l 2.3876,5.2324 c 6.1468,-2.3876 10.2616,-5.334 10.2616,-13.8176 z"
         style="font-style:normal;font-variant:normal;font-weight:600;font-stretch:normal;font-size:50.8px;font-family:'Fira Sans';-inkscape-font-specification:'Fira Sans Semi-Bold';fill:#2a1238;fill-opacity:1;stroke-width:0.264583"
         id="path1555" />
      <path
         d="m 188.47372,36.907873 c 0,-8.5852 -4.5212,-13.665199 -12.1412,-13.665199 -7.874,0 -12.2428,6.299199 -12.2428,14.427199 0,8.4328 4.5212,14.1224 13.1572,14.1224 4.2164,0 7.5692,-1.524 10.2108,-3.6576 l -2.9972,-4.064 c -2.3368,1.6256 -4.2672,2.3368 -6.5532,2.3368 -3.4544,0 -5.8928,-1.524 -6.4008,-6.7056 h 16.8148 c 0.0508,-0.762 0.1524,-1.8796 0.1524,-2.794 z m -7.1628,-1.7272 h -9.8044 c 0.4064,-5.1308 2.1336,-7.0104 4.9784,-7.0104 3.4544,0 4.826,2.6416 4.826,6.7056 z"
         style="font-style:normal;font-variant:normal;font-weight:600;font-stretch:normal;font-size:50.8px;font-family:'Fira Sans';-inkscape-font-specification:'Fira Sans Semi-Bold';fill:#2a1238;fill-opacity:1;stroke-width:0.264583"
         id="path1557" />
      <path
         d="m 204.50533,23.242674 c -7.874,0 -12.8524,5.943599 -12.8524,14.477999 0,8.5852 4.9276,14.0716 12.954,14.0716 3.556,0 6.4008,-1.1684 8.8392,-3.1496 l -3.1496,-4.5212 c -1.9812,1.27 -3.3528,1.8796 -5.334,1.8796 -3.4036,0 -5.6896,-2.0828 -5.6896,-8.3312 0,-6.2484 2.1336,-8.8392 5.7404,-8.8392 1.9812,0 3.556,0.6096 5.2832,1.9304 l 3.1496,-4.2672 c -2.54,-2.184399 -5.334,-3.251199 -8.9408,-3.251199 z"
         style="font-style:normal;font-variant:normal;font-weight:600;font-stretch:normal;font-size:50.8px;font-family:'Fira Sans';-inkscape-font-specification:'Fira Sans Semi-Bold';fill:#2a1238;fill-opacity:1;stroke-width:0.264583"
         id="path1559" />
      <path
         d="m 230.64609,45.086673 c -1.1176,0.6604 -2.0828,0.9652 -3.048,0.9652 -1.8288,0 -2.6924,-1.016 -2.6924,-3.6576 v -13.2588 h 5.4864 l 0.7112,-5.079999 h -6.1976 v -6.7564 l -7.2136,0.8636 v 5.8928 h -4.0132 v 5.079999 h 4.0132 v 13.4112 c 0,5.9944 2.8448,9.1948 8.4328,9.2456 2.3876,0 5.0292,-0.7112 7.0104,-2.0828 z"
         style="font-style:normal;font-variant:normal;font-weight:600;font-stretch:normal;font-size:50.8px;font-family:'Fira Sans';-inkscape-font-specification:'Fira Sans Semi-Bold';fill:#2a1238;fill-opacity:1;stroke-width:0.264583"
         id="path1561" />
      <path
         d="m 239.36249,10.187074 c -2.5908,0 -4.3688,1.8288 -4.3688,4.2164 0,2.3876 1.778,4.2164 4.3688,4.2164 2.5908,0 4.4196,-1.8288 4.4196,-4.2164 0,-2.3876 -1.8288,-4.2164 -4.4196,-4.2164 z m 3.6576,13.8684 h -7.2136 v 26.923999 h 7.2136 z"
         style="font-style:normal;font-variant:normal;font-weight:600;font-stretch:normal;font-size:50.8px;font-family:'Fira Sans';-inkscape-font-specification:'Fira Sans Semi-Bold';fill:#2a1238;fill-opacity:1;stroke-width:0.264583"
         id="path1563" />
      <path
         d="m 261.13451,17.908674 c 1.27,0 2.7432,0.254 4.3688,1.016 l 1.9812,-4.7752 c -1.9812,-0.9652 -4.3688,-1.6256 -7.112,-1.6256 -6.5532,0 -9.8552,3.8608 -9.8552,8.8392 v 2.6924 h -4.2672 v 5.079999 h 4.2672 v 21.844 h 7.2136 v -21.844 h 5.588 l 0.8128,-5.079999 h -6.4008 v -2.4892 c 0,-2.54 0.9652,-3.6576 3.4036,-3.6576 z"
         style="font-style:normal;font-variant:normal;font-weight:600;font-stretch:normal;font-size:50.8px;font-family:'Fira Sans';-inkscape-font-specification:'Fira Sans Semi-Bold';fill:#2a1238;fill-opacity:1;stroke-width:0.264583"
         id="path1565" />
      <path
         d="m 289.45973,24.055474 h -7.4676 l -5.6896,22.250399 -5.3848,-22.250399 h -7.6708 l 8.382,26.923999 h 2.4892 c -1.4732,3.6576 -3.302,5.2832 -8.636,5.9944 l 0.762,5.1816 c 8.2296,-0.5588 12.446,-4.572 14.5288,-11.1252 z"
         style="font-style:normal;font-variant:normal;font-weight:600;font-stretch:normal;font-size:50.8px;font-family:'Fira Sans';-inkscape-font-specification:'Fira Sans Semi-Bold';fill:#2a1238;fill-opacity:1;stroke-width:0.264583"
         id="path1567" />
    </g>
  </g>
</svg>
